<svg width="26" height="26" viewBox="0 0 26 26" fill="none" xmlns="http://www.w3.org/2000/svg">
<path d="M26 26L24.6141 6.69799H20.1514C20.0701 4.895 19.2774 3.19213 17.9387 1.94431C16.6 0.696494 14.8184 0 12.9654 0C11.1123 0 9.33076 0.696494 7.99201 1.94431C6.65327 3.19213 5.86064 4.895 5.77932 6.69799H1.78785L0 26H26ZM13 1.12335C14.548 1.13622 16.0312 1.72985 17.1412 2.78073C18.2512 3.83162 18.9025 5.25884 18.9595 6.76548H6.98508C7.03906 5.24842 7.69697 3.81132 8.81957 2.7583C9.94217 1.70527 11.4414 1.11893 13 1.12335ZM2.95203 7.8723H23.4776L24.6695 24.8527H1.26119L2.95203 7.8723Z" fill="black"/>
</svg>
